<?xml version="1.0" standalone="no"?>
<!DOCTYPE svg PUBLIC "-//W3C//DTD SVG 1.1//EN" "http://www.w3.org/Graphics/SVG/1.1/DTD/svg11.dtd" >
<svg xmlns="http://www.w3.org/2000/svg">
<metadata>Generated by IcoMoon</metadata>
<defs>
<font id="smpl" horiz-adv-x="1024">
<font-face units-per-em="1024" ascent="960" descent="-64" />
<missing-glyph horiz-adv-x="1024" />
<glyph unicode="&#x20;" horiz-adv-x="512" d="" />
<glyph unicode="&#xe900;" glyph-name="chat" d="M469.333 789.333c235.641 0 426.667-152.82 426.667-341.333 0-65.634-23.156-126.941-63.289-178.979 42.875-114.309 49.749-182.649 20.622-205.021s-94.238 3.55-195.332 77.766c-56.885-22.472-120.933-35.099-188.668-35.099-235.641 0-426.667 152.82-426.667 341.333s191.025 341.333 426.667 341.333z" />
<glyph unicode="&#xe901;" glyph-name="add" d="M512 917.333c44.986 0 81.842-34.811 85.099-78.965l0.234-6.369v-298.667h298.667c47.128 0 85.333-38.205 85.333-85.333 0-44.986-34.811-81.842-78.965-85.099l-6.369-0.234h-298.667v-298.667c0-47.128-38.205-85.333-85.333-85.333-44.986 0-81.842 34.811-85.099 78.965l-0.234 6.369v298.667h-298.667c-47.128 0-85.333 38.205-85.333 85.333 0 44.986 34.811 81.842 78.965 85.099l6.369 0.234h298.667v298.667c0 47.128 38.205 85.333 85.333 85.333z" />
<glyph unicode="&#xe902;" glyph-name="arrow_down" d="M871.331 259.98l-5.13-4.769-300.437-257.496-5.2-3.904-6.020-3.809-6.569-3.404-6.799-2.813-7.2-2.262-3.135-0.768c-3.261-0.736-6.589-1.284-9.976-1.633-4.211-0.437-8.444-0.559-12.661-0.371l-9.43 0.935-2.509 0.43c-2.922 0.545-5.823 1.245-8.692 2.1-7.737 2.316-15.184 5.724-22.095 10.221l-6.309 4.547-2.703 2.227-298.667 256-5.13 4.769c-30.98 31.243-33.263 81.561-4.126 115.555s79.213 39.433 114.826 13.596l5.498-4.34 157.801-135.233-0.002 582.443c0 47.128 38.205 85.333 85.333 85.333 44.986 0 81.842-34.811 85.099-78.965l0.234-6.369 0.002-582.485 157.798 135.275c35.782 30.671 89.653 26.527 120.324-9.256 29.137-33.993 26.854-84.312-4.126-115.555z" />
<glyph unicode="&#xe903;" glyph-name="arrow_left" d="M323.981 807.331l-4.769-5.13-257.496-300.437-3.904-5.2-3.809-6.020-3.404-6.569-2.813-6.799-2.262-7.2-0.768-3.135c-0.736-3.261-1.284-6.589-1.633-9.976-0.437-4.211-0.559-8.444-0.371-12.661l0.935-9.43 0.43-2.509c0.545-2.922 1.245-5.823 2.1-8.692 2.316-7.737 5.724-15.184 10.221-22.095l4.547-6.309 2.227-2.703 256-298.667 4.769-5.13c31.243-30.98 81.561-33.263 115.555-4.126s39.433 79.213 13.596 114.826l-4.34 5.498-135.233 157.801 582.443-0.002c47.128 0 85.333 38.205 85.333 85.333 0 44.986-34.811 81.842-78.965 85.099l-6.369 0.234-582.485 0.002 135.275 157.798c30.671 35.782 26.527 89.653-9.256 120.324-33.993 29.137-84.312 26.854-115.555-4.126z" />
<glyph unicode="&#xe904;" glyph-name="arrow_right" d="M700.020 807.331l4.769-5.13 257.496-300.437 3.904-5.2 3.809-6.020 3.404-6.569 2.813-6.799 2.262-7.2 0.768-3.135c0.736-3.261 1.284-6.589 1.633-9.976 0.437-4.211 0.559-8.444 0.371-12.661l-0.935-9.43-0.43-2.509c-0.545-2.922-1.245-5.823-2.1-8.692-2.316-7.737-5.724-15.184-10.221-22.095l-4.547-6.309-2.227-2.703-256-298.667-4.769-5.13c-31.243-30.98-81.561-33.263-115.555-4.126s-39.433 79.213-13.596 114.826l4.34 5.498 135.233 157.801-582.443-0.002c-47.128 0-85.333 38.205-85.333 85.333 0 44.986 34.811 81.842 78.965 85.099l6.369 0.234 582.485 0.002-135.275 157.798c-30.671 35.782-26.527 89.653 9.256 120.324 33.993 29.137 84.312 26.854 115.555-4.126z" />
<glyph unicode="&#xe905;" glyph-name="arrow_up" d="M871.331 636.020l-5.13 4.769-300.437 257.496-5.2 3.904-6.020 3.809-6.569 3.404-6.799 2.813-7.2 2.262-3.135 0.768c-3.261 0.736-6.589 1.284-9.976 1.633-4.211 0.437-8.444 0.559-12.661 0.371l-9.43-0.935-2.509-0.43c-2.922-0.545-5.823-1.245-8.692-2.1-7.737-2.316-15.184-5.724-22.095-10.221l-6.309-4.547-2.703-2.227-298.667-256-5.13-4.769c-30.98-31.243-33.263-81.561-4.126-115.555s79.213-39.433 114.826-13.596l5.498 4.34 157.801 135.233-0.002-582.443c0-47.128 38.205-85.333 85.333-85.333 44.986 0 81.842 34.811 85.099 78.965l0.234 6.369 0.002 582.485 157.798-135.275c35.782-30.671 89.653-26.527 120.324 9.256 29.137 33.993 26.854 84.312-4.126 115.555z" />
<glyph unicode="&#xe906;" glyph-name="basket" d="M511.846 923.018c11.618 0.036 23.387-3.089 33.976-9.684 11.394-7.096 19.784-17.19 24.785-28.625l206.64-330.715 102.458-0.010c73.231 0 105.995-66.868 99.648-110.53l-71.047-359.15c-10.418-56.219-62.474-101.54-116.387-105.375l-7.36-0.263h-545.144c-56.454 0-112.856 46.864-123.747 105.638l-70.098 354.027c-9.853 43.328 22.539 115.652 98.699 115.652l102.332 0.010 205.866 330.624c4.983 11.442 13.357 21.549 24.74 28.663 8.463 5.289 17.685 8.359 26.983 9.365l7.655 0.371zM511.65 737.418l-114.265-183.424h228.907l-114.642 183.424z" />
<glyph unicode="&#xe907;" glyph-name="browser" d="M853.333 917.333c70.692 0 128-57.308 128-128v-682.667c0-70.692-57.308-128-128-128h-682.667c-70.692 0-128 57.308-128 128v682.667c0 70.692 57.308 128 128 128h682.667zM853.333 618.667h-682.667v-426.667c0-44.986 34.811-81.842 78.965-85.099l6.369-0.234h512c44.986 0 81.842 34.811 85.099 78.965l0.234 6.369v426.667zM618.667 832c-35.346 0-64-28.654-64-64s28.654-64 64-64c35.346 0 64 28.654 64 64s-28.654 64-64 64zM789.333 832c-35.346 0-64-28.654-64-64s28.654-64 64-64c35.346 0 64 28.654 64 64s-28.654 64-64 64zM448 832c-35.346 0-64-28.654-64-64s28.654-64 64-64c35.346 0 64 28.654 64 64s-28.654 64-64 64z" />
<glyph unicode="&#xe908;" glyph-name="calendar" d="M704 917.333c35.346 0 64-28.862 64-64.273l-0.043-63.727h85.317c70.725 0 128.059-57.005 128.059-128.005v-554.656c0-70.695-57.305-128.005-128.059-128.005h-682.548c-70.725 0-128.059 57.005-128.059 128.005v554.656c0 70.695 57.305 128.005 128.059 128.005h85.231l0.043 63.727c0 33.525 25.339 61.055 58.138 64.010l5.862 0.263c35.346 0 64-28.862 64-64.273v-63.727h255.957l0.043 63.727c0 33.525 25.339 61.055 58.138 64.010l5.862 0.263zM639.957 661.333h-256l0.043-63.727c0-33.525-25.339-61.055-58.138-64.010l-5.862-0.263c-35.346 0-64 28.862-64 64.273l-0.043 63.727h-42.587c-22.038 0-39.969-16.446-42.419-37.634l-0.285-4.968v-469.461c0-23.51 19.119-42.603 42.704-42.603v0h597.259c23.733 0 42.704 19.074 42.704 42.603v0 469.461c0 23.51-19.119 42.603-42.704 42.603v0h-42.672l0.043-63.727c0-33.525-25.339-61.055-58.138-64.010l-5.862-0.263c-35.346 0-64 28.862-64 64.273l-0.043 63.727z" />
<glyph unicode="&#xe909;" glyph-name="camera" d="M298.667 917.333c44.986 0 81.842-34.811 85.099-78.965l0.234-6.369v-42.667h469.333c70.692 0 128-57.308 128-128v-554.667c0-70.692-57.308-128-128-128h-682.667c-70.692 0-128 57.308-128 128v554.667c0 70.692 57.308 128 128 128h42.667v42.667c0 47.128 38.205 85.333 85.333 85.333zM512 533.333c-117.818 0-213.328-95.51-213.328-213.328s95.51-213.328 213.328-213.328c117.818 0 213.328 95.51 213.328 213.328s-95.51 213.328-213.328 213.328z" />
<glyph unicode="&#xe90a;" glyph-name="check" d="M841.088 598.658c33.527 28.248 83.681 26.586 115.252-4.985s33.232-81.725 4.985-115.252l-4.985-5.428-469.333-469.333c-14.031-14.031-31.734-22.155-50.016-24.37l-6.877-0.554h-6.895c-18.378 0.738-36.564 7.385-51.464 19.939l-5.428 4.985-298.667 298.667c-33.325 33.325-33.325 87.355 0 120.68 31.571 31.571 81.725 33.232 115.252 4.985l5.428-4.985 238.327-238.302 408.994 408.969 5.428 4.985z" />
<glyph unicode="&#xe90b;" glyph-name="chevron_down" d="M845.019 687.104c35.128 26.23 85.098 21.626 114.76-11.744s28.376-83.535-1.792-115.346l-5.295-5.126-388.804-345.319-6.019-4.218-5.581-3.267-6.276-3.034-6.634-2.553-6.455-1.899-8.7-1.725-5.302-0.59-6.899-0.282-7.014 0.283-5.194 0.584-4.341 0.745-5.708 1.326-8.014 2.586-3.739 1.513-4.424 2.075-6.183 3.451-5.672 3.806-5.093 4.014-385.332 342.506c-35.224 31.31-38.397 85.247-7.087 120.471 29.662 33.37 79.632 37.974 114.76 11.744l5.711-4.658 327.307-290.935 327.309 290.935 5.711 4.658z" />
<glyph unicode="&#xe90c;" glyph-name="chevron_left" d="M751.103 114.982c26.23-35.128 21.626-85.098-11.744-114.76s-83.535-28.376-115.346 1.792l-5.126 5.295-345.319 388.804-4.218 6.019-3.267 5.581-3.034 6.276-2.553 6.634-1.899 6.455-1.725 8.7-0.59 5.302-0.282 6.899 0.283 7.014 0.584 5.194 0.745 4.341 1.326 5.708 2.586 8.014 1.513 3.739 2.075 4.424 3.451 6.183 3.806 5.672 4.014 5.093 342.506 385.332c31.31 35.224 85.247 38.397 120.471 7.087 33.37-29.662 37.974-79.632 11.744-114.76l-4.658-5.711-290.935-327.307 290.935-327.309 4.658-5.711z" />
<glyph unicode="&#xe90d;" glyph-name="chevron_right" d="M272.897 114.982c-26.23-35.128-21.626-85.098 11.744-114.76s83.535-28.376 115.346 1.792l5.126 5.295 345.319 388.804 4.218 6.019 3.267 5.581 3.034 6.276 2.553 6.634 1.899 6.455 1.725 8.7 0.59 5.302 0.282 6.899-0.283 7.014-0.584 5.194-0.745 4.341-1.326 5.708-2.586 8.014-1.513 3.739-2.075 4.424-3.451 6.183-3.806 5.672-4.014 5.093-342.506 385.332c-31.31 35.224-85.247 38.397-120.471 7.087-33.37-29.662-37.974-79.632-11.744-114.76l4.658-5.711 290.935-327.307-290.935-327.309-4.658-5.711z" />
<glyph unicode="&#xe90e;" glyph-name="chevron_up" d="M845.019 208.898c35.128-26.23 85.098-21.626 114.76 11.744s28.376 83.535-1.792 115.346l-5.295 5.126-388.804 345.319-6.019 4.218-5.581 3.267-6.276 3.034-6.634 2.553-6.455 1.899-8.7 1.725-5.302 0.59-6.899 0.282-7.014-0.283-5.194-0.584-4.341-0.745-5.708-1.326-8.014-2.586-3.739-1.513-4.424-2.075-6.183-3.451-5.672-3.806-5.093-4.014-385.332-342.506c-35.224-31.31-38.397-85.247-7.087-120.471 29.662-33.37 79.632-37.974 114.76-11.744l5.711 4.658 327.307 290.935 327.309-290.935 5.711-4.658z" />
<glyph unicode="&#xe90f;" glyph-name="clip" d="M298.693 276.488c4.779-118.184 97.154-212.488 213.251-212.488 116.376 0 209.033 94.758 213.39 213.341l0.010 426.647c-4.243 71.436-58.209 128.013-128.015 128.013s-123.763-56.576-127.995-128.013v-399.609c0-23.564 19.103-42.667 42.667-42.667s42.667 19.103 42.667 42.667l0.005 399.609h85.333v-399.609c-0.005-70.692-57.312-128-128.005-128s-128 57.308-128 128l0.023 400.467c4.729 118.184 98.42 212.488 213.306 212.488 115.162 0 209.027-94.758 213.338-213.341l0.010-426.659-0.138 0.043-0.533-12.117c-10.308-160.053-139.815-286.593-298.061-286.593-162.211 0-294.225 132.961-298.61 298.686v426.635h85.333l0.026-427.499z" />
<glyph unicode="&#xe910;" glyph-name="clipboard" d="M512 917.333c68.168 0 123.89-53.287 127.783-120.479l0.217-7.521h213.333c70.692 0 128-57.308 128-128v-554.667c0-70.692-57.308-128-128-128h-682.667c-70.692 0-128 57.308-128 128v554.667c0 70.692 57.308 128 128 128h213.333c0 70.692 57.308 128 128 128zM768 234.667l-516.976-0.287c-21.22-2.465-37.691-20.499-37.691-42.38 0-23.564 19.103-42.667 42.667-42.667v0l516.976 0.287c21.22 2.465 37.691 20.499 37.691 42.38 0 23.564-19.103 42.667-42.667 42.667v0zM768 426.667l-516.976-0.287c-21.22-2.465-37.691-20.499-37.691-42.38 0-23.564 19.103-42.667 42.667-42.667v0l516.976 0.287c21.22 2.465 37.691 20.499 37.691 42.38 0 23.564-19.103 42.667-42.667 42.667v0zM768 618.667l-516.976-0.287c-21.22-2.465-37.691-20.499-37.691-42.38 0-23.564 19.103-42.667 42.667-42.667v0l516.976 0.287c21.22 2.465 37.691 20.499 37.691 42.38 0 23.564-19.103 42.667-42.667 42.667v0z" />
<glyph unicode="&#xe911;" glyph-name="computer" d="M853.333 917.333c70.692 0 128-57.308 128-128v-682.667c0-70.692-57.308-128-128-128h-682.667c-70.692 0-128 57.308-128 128v682.667c0 70.692 57.308 128 128 128h682.667zM512 192c-35.346 0-64-28.654-64-64s28.654-64 64-64c35.346 0 64 28.654 64 64s-28.654 64-64 64zM768 789.333h-512c-44.986 0-81.842-34.811-85.099-78.965l-0.234-6.369v-341.333c0-44.986 34.811-81.842 78.965-85.099l6.369-0.234h512c44.986 0 81.842 34.811 85.099 78.965l0.234 6.369v341.333c0 47.128-38.205 85.333-85.333 85.333z" />
<glyph unicode="&#xe912;" glyph-name="data" d="M907.143 284.114l38.518-19.675c49.987-25.56 49.987-67.001 0-92.561l-342.345-175.053c-49.987-25.56-131.032-25.56-181.019 0l-342.345 175.053c-49.987 25.56-49.987 67.001 0 92.561l38.456 19.675 303.889-155.353c47.047-24.057 121.605-25.472 171.888-4.245l9.131 4.245 303.828 155.353zM908.167 502.806l37.494-19.164c49.987-25.56 49.987-67.001 0-92.561l-342.345-175.053c-49.987-25.56-131.032-25.56-181.019 0l-342.345 175.053c-49.987 25.56-49.987 67.001 0 92.561l37.432 19.164 304.913-155.876c47.047-24.057 121.605-25.472 171.888-4.245l9.131 4.245 304.852 155.876zM603.316 898.163l342.345-175.053c49.987-25.56 49.987-67.001 0-92.561l-342.345-175.053c-49.987-25.56-131.032-25.56-181.019 0l-342.345 175.053c-49.987 25.56-49.987 67.001 0 92.561l342.345 175.053c49.987 25.56 131.032 25.56 181.019 0z" />
<glyph unicode="&#xe913;" glyph-name="delete" d="M67.66 892.34c31.571 31.571 81.725 33.232 115.252 4.985l5.428-4.985 323.66-323.636 323.66 323.636c31.571 31.571 81.725 33.232 115.252 4.985l5.428-4.985c31.571-31.571 33.232-81.725 4.985-115.252l-4.985-5.428-323.636-323.66 323.636-323.66c31.571-31.571 33.232-81.725 4.985-115.252l-4.985-5.428c-31.571-31.571-81.725-33.232-115.252-4.985l-5.428 4.985-323.66 323.636-323.66-323.636c-31.571-31.571-81.725-33.232-115.252-4.985l-5.428 4.985c-31.571 31.571-33.232 81.725-4.985 115.252l4.985 5.428 323.636 323.66-323.636 323.66c-31.571 31.571-33.232 81.725-4.985 115.252l4.985 5.428z" />
<glyph unicode="&#xe914;" glyph-name="download" d="M709.147 211.17c87.244-23.187 144.187-61.352 144.187-104.504 0-70.692-152.82-128-341.333-128s-341.333 57.308-341.333 128c0 43.152 56.942 81.317 144.187 104.504l121.754-104.401 6.228-5.139c6.373-4.888 13.167-9.020 20.253-12.388 38.152-18.189 83.807-13.663 117.691 12.093l6.614 5.434 121.754 104.401zM563.103 208.947l-7.412-4.981-5.967-3.239-2.294-1.087-3.854-1.641-6.374-2.244-6.453-1.727-8.702-1.475-7.26-0.552h-5.527l-6.63 0.467-6.719 1.008-5.545 1.251-2.060 0.567c-1.887 0.544-3.724 1.143-5.533 1.803l-3.749 1.467 2.779-1.107c-4.31 1.631-8.454 3.601-12.398 5.878l-5.814 3.675c-2.802 1.915-5.526 4.045-8.137 6.36l5.605-4.544-2.653 2.059-300.608 257.619c-35.782 30.671-39.926 84.542-9.256 120.324 29.137 33.993 79.213 39.433 114.826 13.596l5.498-4.34 157.798-135.233 0.002 369.109c0 44.986 34.811 81.842 78.965 85.099l6.369 0.234c44.986 0 81.842-34.811 85.099-78.965l0.234-6.369-0.002-369.109 157.801 135.233c33.993 29.137 84.312 26.854 115.555-4.126l4.769-5.13c29.137-33.993 26.854-84.312-4.126-115.555l-5.13-4.769-298.028-255.462c-1.644-1.425-3.331-2.792-5.069-4.094z" />
<glyph unicode="&#xe915;" glyph-name="edit" d="M778.912 448l-348.671-354.825c-40.381-40.381-133.684-76.094-279.909-107.139l-19.404-3.997c-23.307-6.601-49.282-0.82-67.495 17.393-19.462 19.462-24.728 47.787-15.861 72.249l-0.82-2.396c31.096 150.922 65.427 247.298 103.059 289.188l7.363 7.767 348.671 354.825 273.066-273.066zM830.285 493.219l-273.066 273.066 118.185 118.185c43.514 43.514 113.72 43.86 156.809 0.771l117.028-117.028c43.089-43.089 42.743-113.294-0.771-156.809l-118.185-118.185z" />
<glyph unicode="&#xe916;" glyph-name="ellipsis" d="M160 565.333c64.801 0 117.333-52.532 117.333-117.333s-52.532-117.333-117.333-117.333c-64.801 0-117.333 52.532-117.333 117.333s52.532 117.333 117.333 117.333zM512 565.333c64.801 0 117.333-52.532 117.333-117.333s-52.532-117.333-117.333-117.333c-64.801 0-117.333 52.532-117.333 117.333s52.532 117.333 117.333 117.333zM864 565.333c64.801 0 117.333-52.532 117.333-117.333s-52.532-117.333-117.333-117.333c-64.801 0-117.333 52.532-117.333 117.333s52.532 117.333 117.333 117.333z" />
<glyph unicode="&#xe917;" glyph-name="file" d="M810.667 917.333c70.692 0 128-57.308 128-128v-682.667c0-70.692-57.308-128-128-128h-597.333c-70.692 0-128 57.308-128 128v682.667c0 70.692 57.308 128 128 128h597.333zM725.333 789.333h-426.667c-47.128 0-85.333-38.205-85.333-85.333v0-512c0-47.128 38.205-85.333 85.333-85.333v0h426.667c47.128 0 85.333 38.205 85.333 85.333v0 512c0 47.128-38.205 85.333-85.333 85.333v0zM682.667 661.333c23.564 0 42.667-19.103 42.667-42.667 0-21.881-16.471-39.915-37.691-42.38l-4.976-0.287h-341.333c-23.564 0-42.667 19.103-42.667 42.667 0 21.881 16.471 39.915 37.691 42.38l4.976 0.287h341.333zM682.667 490.667c23.564 0 42.667-19.103 42.667-42.667 0-21.881-16.471-39.915-37.691-42.38l-4.976-0.287h-341.333c-23.564 0-42.667 19.103-42.667 42.667 0 21.881 16.471 39.915 37.691 42.38l4.976 0.287h341.333zM512 320c23.564 0 42.667-19.103 42.667-42.667 0-21.881-16.471-39.915-37.691-42.38l-4.976-0.287h-170.667c-23.564 0-42.667 19.103-42.667 42.667 0 21.881 16.471 39.915 37.691 42.38l4.976 0.287h170.667z" />
<glyph unicode="&#xe918;" glyph-name="filter" d="M887.339 914.987c75.298 0 103.436-83.785 61.151-133.832l-351.178-418.915 0.009-383.573-170.667 98.56-0.009 285.013-351.135 418.915c-40.964 48.483-15.837 128.628 54.231 133.59l6.92 0.242h750.678z" />
<glyph unicode="&#xe919;" glyph-name="folder" d="M981.333 106.667c0-70.692-57.308-128-128-128h-682.667c-70.692 0-128 57.308-128 128v554.667c0 70.692 57.308 128 128 128h512v42.667c0 47.128 38.205 85.333 85.333 85.333h128c47.128 0 85.333-38.205 85.333-85.333v-725.333z" />
<glyph unicode="&#xe91a;" glyph-name="gallery" d="M862.505 704c72.592 0 129.414-44.166 118.148-128l-70.884-498.424c-7.34-54.626-60.237-98.909-118.148-98.909h-559.241c-57.911 0-110.808 44.283-118.148 98.909l-70.884 498.424c-11.338 84.373 45.557 128 118.148 128h701.009zM620.426 405.333l-159.682-218.505-106.948 109.253-140.463-218.505h597.333l-190.24 327.758zM853.333 917.333c47.128 0 85.333-38.205 85.333-85.333v-42.667h-853.333v42.667c0 47.128 38.205 85.333 85.333 85.333h682.667z" />
<glyph unicode="&#xe91b;" glyph-name="home" d="M981.333-21.333l-341.376 0.043 0.043 213.291c0 68.168-53.287 123.89-120.479 127.783l-7.521 0.217c-68.168 0-123.89-53.287-127.783-120.479l-0.217-7.521-0.043-213.291h-42.624v-0.043h-298.667v533.167c0 55.742 24.476 105.511 62.812 138.212l6.884 5.574-0.064 0.105 303.821 230.844c27.341 19.415 60.342 30.765 95.88 30.765 37.672 0 72.493-12.754 100.724-34.354l300.529-228.475c38.908-30.675 64.884-78.309 67.806-132.382l0.275-10.211v-533.244z" />
<glyph unicode="&#xe91c;" glyph-name="image" d="M853.333 917.333c70.692 0 128-57.308 128-128v-682.667c0-70.692-57.308-128-128-128h-682.667c-70.692 0-128 57.308-128 128v682.667c0 70.692 57.308 128 128 128h682.667zM625.778 448l-170.667-227.556-113.778 113.778-170.667-227.556h682.667l-227.556 341.333z" />
<glyph unicode="&#xe91d;" glyph-name="info" d="M512 917.333c259.206 0 469.333-210.128 469.333-469.333s-210.128-469.333-469.333-469.333c-259.206 0-469.333 210.128-469.333 469.333s210.128 469.333 469.333 469.333zM512 533.333c-47.128 0-85.333-31.838-85.333-71.111v0-284.444l0.234-5.307c3.258-36.795 40.113-65.804 85.099-65.804 47.128 0 85.333 31.838 85.333 71.111v0 284.444l-0.234 5.307c-3.258 36.795-40.113 65.804-85.099 65.804zM512 789.333c-47.128 0-85.333-38.205-85.333-85.333s38.205-85.333 85.333-85.333c47.128 0 85.333 38.205 85.333 85.333s-38.205 85.333-85.333 85.333z" />
<glyph unicode="&#xe91e;" glyph-name="love" d="M512-19.58l-16.047 9.264c-82.312 49.197-453.286 291.981-453.286 671.547 0 141.442 114.661 256.103 256.103 256.103 85.251 0 160.774-41.655 207.324-105.721l5.906-8.482c45.908 68.848 124.273 114.203 213.23 114.203 141.442 0 256.103-114.661 256.103-256.103 0-426.929-469.333-680.81-469.333-680.81z" />
<glyph unicode="&#xe91f;" glyph-name="magnifier" d="M426.667 917.333c212.077 0 384-171.923 384-384 0-75.132-21.577-145.224-58.872-204.418l204.545-204.576c33.325-33.325 33.325-87.355 0-120.68-31.571-31.571-81.725-33.232-115.252-4.985l-5.428 4.985-204.576 204.545c-59.194-37.295-129.286-58.872-204.418-58.872-212.077 0-384 171.923-384 384s171.923 384 384 384zM426.667 746.667c-117.821 0-213.333-95.513-213.333-213.333s95.513-213.333 213.333-213.333c117.821 0 213.333 95.513 213.333 213.333s-95.513 213.333-213.333 213.333z" />
<glyph unicode="&#xe920;" glyph-name="mail" d="M853.333 874.667c70.692 0 128-57.308 128-128v-597.333c0-70.692-57.308-128-128-128h-682.667c-70.692 0-128 57.308-128 128v597.333c0 70.692 57.308 128 128 128h682.667zM810.667 746.667c-16.268 0-27.38-8.763-34.666-18.6v0l-178.658-193.15-5.101-5.164c-20.536-19.615-47.355-30.344-73.42-32.113v0l-7.033-0.187-8.387 0.236c-25.768 1.761-51.105 12.45-71.641 32.065v0l-5.101 5.164-178.658 193.15-2.914 3.624c-7.231 8.268-17.517 14.976-31.752 14.976-21.968 0-42.667-16.1-42.667-39.664 0-12.439 4.962-23.635 12.879-31.433v0l186.86-200.993 7.975-8.102c37.941-36.498 85.81-54.624 133.612-54.386v0c50.631 0.414 102.979 21.061 141.6 62.489v0l186.86 200.993c7.917 7.799 12.879 18.995 12.879 31.433 0 23.564-20.699 39.664-42.667 39.664z" />
<glyph unicode="&#xe921;" glyph-name="menu_2" d="M896 234.667c47.128 0 85.333-38.205 85.333-85.333 0-44.986-34.811-81.842-78.965-85.099l-6.369-0.234h-768c-47.128 0-85.333 38.205-85.333 85.333 0 44.986 34.811 81.842 78.965 85.099l6.369 0.234h768zM896 533.333c47.128 0 85.333-38.205 85.333-85.333 0-44.986-34.811-81.842-78.965-85.099l-6.369-0.234h-469.333c-47.128 0-85.333 38.205-85.333 85.333 0 44.986 34.811 81.842 78.965 85.099l6.369 0.234h469.333zM896 832c47.128 0 85.333-38.205 85.333-85.333 0-44.986-34.811-81.842-78.965-85.099l-6.369-0.234h-768c-47.128 0-85.333 38.205-85.333 85.333 0 44.986 34.811 81.842 78.965 85.099l6.369 0.234h768z" />
<glyph unicode="&#xe922;" glyph-name="menu" d="M128 362.667h768c47.128 0 85.333 38.205 85.333 85.333s-38.205 85.333-85.333 85.333h-768c-47.128 0-85.333-38.205-85.333-85.333s38.205-85.333 85.333-85.333zM128 661.333h768c47.128 0 85.333 38.205 85.333 85.333s-38.205 85.333-85.333 85.333h-768c-47.128 0-85.333-38.205-85.333-85.333s38.205-85.333 85.333-85.333zM128 64h768c47.128 0 85.333 38.205 85.333 85.333s-38.205 85.333-85.333 85.333h-768c-47.128 0-85.333-38.205-85.333-85.333s38.205-85.333 85.333-85.333z" />
<glyph unicode="&#xe923;" glyph-name="microphone" d="M789.333 554.667c33.267 0 60.606-25.382 63.707-57.836l0.293-6.164c0-166.63-119.399-305.372-277.308-335.338l-0.025-113.923c0-35.346-28.654-64-64-64-33.267 0-60.606 25.382-63.707 57.836l-0.293 6.164 0.018 113.915c-157.931 29.95-277.351 168.702-277.351 335.347 0 35.346 28.654 64 64 64 33.267 0 60.606-25.382 63.707-57.836l0.293-6.164c0-117.821 95.513-213.333 213.333-213.333s213.333 95.513 213.333 213.333c0 35.346 28.654 64 64 64zM512 917.333c68.168 0 123.89-53.287 127.783-120.479l0.217-7.521v-298.667c0-70.692-57.308-128-128-128-68.168 0-123.89 53.287-127.783 120.479l-0.217 7.521v298.667c0 70.692 57.308 128 128 128z" />
<glyph unicode="&#xe924;" glyph-name="news" d="M810.667 917.333c70.692 0 128-57.308 128-128v-682.667c0-70.692-57.308-128-128-128h-597.333c-70.692 0-128 57.308-128 128v682.667c0 70.692 57.308 128 128 128h597.333zM725.333 789.333h-426.667c-47.128 0-85.333-38.205-85.333-85.333v0-512c0-47.128 38.205-85.333 85.333-85.333v0h426.667c47.128 0 85.333 38.205 85.333 85.333v0 512c0 47.128-38.205 85.333-85.333 85.333v0zM682.667 448c23.564 0 42.667-19.103 42.667-42.667 0-21.881-16.471-39.915-37.691-42.38l-4.976-0.287h-341.333c-23.564 0-42.667 19.103-42.667 42.667 0 21.881 16.471 39.915 37.691 42.38l4.976 0.287h341.333zM682.667 277.333c23.564 0 42.667-19.103 42.667-42.667 0-21.881-16.471-39.915-37.691-42.38l-4.976-0.287h-341.333c-23.564 0-42.667 19.103-42.667 42.667 0 21.881 16.471 39.915 37.691 42.38l4.976 0.287h341.333zM640 704c47.128 0 85.333-38.205 85.333-85.333 0-44.986-34.811-81.842-78.965-85.099l-6.369-0.234h-256c-47.128 0-85.333 38.205-85.333 85.333 0 44.986 34.811 81.842 78.965 85.099l6.369 0.234h256z" />
<glyph unicode="&#xe925;" glyph-name="options" d="M320.619 276.096c59.707 0 111.196-35.186 134.862-85.954l461.585 0.002c35.346 0 64-28.654 64-64 0-33.267-25.382-60.606-57.836-63.707l-6.164-0.293-462.773-0.011c-24.171-49.426-74.947-83.466-133.674-83.466s-109.503 34.040-133.674 83.466l-79.689 0.011c-35.346 0-64 28.654-64 64 0 33.267 25.382 60.606 57.836 63.707l6.164 0.293 78.501-0.002c23.666 50.768 75.155 85.954 134.862 85.954zM704.619 596.715c59.217 0 110.35-34.611 134.273-84.707l78.173-0.008c35.346 0 64-28.654 64-64 0-33.267-25.382-60.606-57.836-63.707l-6.164-0.293-78.173-0.008c-23.924-50.096-75.057-84.707-134.273-84.707s-110.35 34.611-134.273 84.707l-463.089 0.008c-35.346 0-64 28.654-64 64 0 33.267 25.382 60.606 57.836 63.707l6.164 0.293 463.089 0.008c23.924 50.096 75.057 84.707 134.273 84.707zM319.381 917.333c59.217 0 110.35-34.611 134.273-84.707l463.41-0.008c35.346 0 64-28.654 64-64 0-33.267-25.382-60.606-57.836-63.707l-6.164-0.293-463.41-0.008c-23.924-50.096-75.057-84.707-134.273-84.707s-110.35 34.611-134.273 84.707l-77.852 0.008c-35.346 0-64 28.654-64 64 0 33.267 25.382 60.606 57.836 63.707l6.164 0.293 77.852 0.008c23.924 50.096 75.057 84.707 134.273 84.707z" />
<glyph unicode="&#xe926;" glyph-name="pin" d="M512 917.333c188.305 0 340.957-152.652 340.957-340.957 0-309.53-340.957-597.709-340.957-597.709s-340.957 288.372-340.957 597.709c0 222.621 152.652 340.957 340.957 340.957zM512 702.727c-69.989 0-126.727-56.738-126.727-126.727s56.738-126.727 126.727-126.727c69.989 0 126.727 56.738 126.727 126.727s-56.738 126.727-126.727 126.727z" />
<glyph unicode="&#xe927;" glyph-name="smartphone" d="M768 917.333c70.692 0 128-57.308 128-128v-682.667c0-70.692-57.308-128-128-128h-512c-70.692 0-128 57.308-128 128v682.667c0 70.692 57.308 128 128 128h512zM725.333 832h-426.667c-44.986 0-81.842-34.811-85.099-78.965l-0.234-6.369v-512c0-44.986 34.811-81.842 78.965-85.099l6.369-0.234h426.667c44.986 0 81.842 34.811 85.099 78.965l0.234 6.369v512c0 47.128-38.205 85.333-85.333 85.333zM512 405.333c47.128 0 85.333-38.205 85.333-85.333s-38.205-85.333-85.333-85.333c-47.128 0-85.333 38.205-85.333 85.333s38.205 85.333 85.333 85.333z" />
<glyph unicode="&#xe928;" glyph-name="sound_off" d="M750.346 917.333c33.314 0 60.321-26.023 60.321-58.124l-0.164-4.318v-813.781l0.164-4.318c0-32.101-27.007-58.124-60.321-58.124-8.688 0-16.341 1.282-24.831 4.175l-9.218 3.278-5.158 2.255-1.962 1.007-8.264 5.021c-10.256 6.581-25.487 17.295-36.697 27.233l-5.228 4.881-42.547 42.955-163.027 207.862h-107.244c-73.364 0-132.837 57.308-132.837 128v85.333c0 70.692 59.473 128 132.837 128h107.2l163.071 207.862 42.547 42.955c14.428 14.313 41.28 32.217 50.189 37.135l1.962 1.007 5.158 2.255c2.086 0.848 4.124 1.542 9.218 3.278 8.49 2.893 16.143 4.175 24.831 4.175z" />
<glyph unicode="&#xe929;" glyph-name="sound_on" d="M643.991 917.333c33.314 0 60.321-26.023 60.321-58.124l-0.164-4.318v-813.781l0.164-4.318c0-32.101-27.007-58.124-60.321-58.124-8.688 0-16.341 1.282-24.831 4.175l-9.218 3.278-5.158 2.255-1.962 1.007-8.264 5.021c-10.256 6.581-25.487 17.295-36.697 27.233l-5.228 4.881-42.547 42.955-163.027 207.862h-107.244c-73.364 0-132.837 57.308-132.837 128v85.333c0 70.692 59.473 128 132.837 128h107.2l163.071 207.862 42.547 42.955c12.985 12.882 36.034 28.672 47.008 35.286l5.143 2.855 5.158 2.255 9.218 3.278c8.49 2.893 16.143 4.175 24.831 4.175zM853.022 728.43c33.267 0 60.606-25.382 63.707-57.836l0.293-6.164v-428.117c0-35.346-28.654-64-64-64-33.267 0-60.606 25.382-63.707 57.836l-0.293 6.164v428.117c0 35.346 28.654 64 64 64z" />
<glyph unicode="&#xe92a;" glyph-name="star" d="M440.622 854.609c29.702 54.502 106.222 56.448 139.268 5.839l3.488-5.839 108.11-198.31 222.008-41.535c57.962-10.836 83.871-76.514 53.806-123.41l-3.572-5.13-6.119-7.23-155.324-164.032 29.23-224.044c7.634-58.695-47.265-103.751-101.355-89.145l-5.789 1.795-8.348 3.44-204.024 96.926-204.024-96.926c-53.463-25.398-113.278 12.891-116.103 68.847l-0.082 6.061 0.692 9.003 29.148 224.044-155.242 164.032c-40.523 42.836-22.879 111.2 29.009 131.467l5.905 2.050 9.201 2.253 221.926 41.535 108.191 198.31z" />
<glyph unicode="&#xe92b;" glyph-name="substract" d="M128 362.667h768c47.128 0 85.333 38.205 85.333 85.333s-38.205 85.333-85.333 85.333h-768c-47.128 0-85.333-38.205-85.333-85.333s38.205-85.333 85.333-85.333z" />
<glyph unicode="&#xe92c;" glyph-name="suitcase" d="M640 917.333c70.692 0 128-57.308 128-128v-42.667h85.333c70.692 0 128-57.308 128-128v-512c0-70.692-57.308-128-128-128h-682.667c-70.692 0-128 57.308-128 128v512c0 70.692 57.308 128 128 128h85.333v42.667c0 70.692 57.308 128 128 128h256zM618.667 832h-213.333c-33.267 0-60.606-25.382-63.707-57.836l-0.293-6.164v-21.333h341.333v21.333c0 33.267-25.382 60.606-57.836 63.707l-6.164 0.293z" />
<glyph unicode="&#xe92d;" glyph-name="time" d="M512 917.333c259.206 0 469.333-210.128 469.333-469.333s-210.128-469.333-469.333-469.333c-259.206 0-469.333 210.128-469.333 469.333s210.128 469.333 469.333 469.333zM777.224 680.993c-14.099 14.099-35.61 16.268-51.99 6.507l-4.331-2.958-4.020-3.549-204.885-204.847-140.497 140.459-4.020 3.549c-16.738 13.014-40.94 11.831-56.32-3.549s-16.564-39.583-3.549-56.32l3.549-4.020 170.667-170.667 4.020-3.549c5.579-4.338 11.988-7.099 18.623-8.282l5.009-0.592h5.037l5.009 0.592c6.635 1.183 13.043 3.944 18.623 8.282l4.020 3.549 235.054 235.054 3.549 4.020c13.014 16.738 11.831 40.94-3.549 56.32z" />
</font>
</defs>
</svg>
